<svg xmlns="http://www.w3.org/2000/svg" id="Small_1C_on_Blue" viewBox="0 0 570.7 173.2"><defs><style> .st0 { fill: #fff; } </style></defs><g><g><path class="st0" d="M61.9,138.3c-3.4,1.1-6.8,2.1-10.2,3-2.9-1.6-5.6-3.4-8-5.2-4.7-3.6-8.4-7.6-11-11.9-1.8-2.9-2.8-5.7-3.4-7.9,6.3,9.7,18.3,16.5,29.4,20.9,1,.4,2.3.8,3.2,1.2h0Z"></path><path class="st0" d="M100.3,86.5v25.3c-.3.4-.5.9-.8,1.3-.6,1-1.2,1.9-2,2.9-.2.3-.4.5-.6.7v-8.1l-22.5-3.1h-.5l-1.8-.3-1.5-.2v-53.9l2.8,4.8v21.2c0,.8,0,1.5.2,2.1.3,1.3.8,2.1.8,2.1v13l22.5,4.5v-38.2h0l2.2,3.4v.2h0v18.9h0s0,2.2.9,3.4h.3Z"></path><path class="st0" d="M103.5,55.4v-7.6h1v-6.7c0-1.5-.6-2.9-1.6-4,0-1.4-.7-2.6-1.2-3.3-.4-.6-.9-1.2-1.7-1.8l-.2-.2c-.3-.2-.7-.5-.8-.6-1.9-1.2-2.2-1.3-2.5-1.5-1.5-.7-3.4-.8-5.3-.4-.2,0-.5.1-1.1.4l-3.3,1.5-.4.2c-1.2.7-2.1,1.7-2.6,2.6l-.9-.4v-3.7c0-1.2-.5-2.4-1.2-3.3h0c0-1.7-.6-3.5-1.9-5.2-.5-.7-1.1-1.2-1.3-1.3h-.2c-.7-.7-2-1.6-3.2-2.4-3.7-2.3-7.5-.7-8.2-.4l-4.9,2.1-.7.4c-2.5,1.5-3.5,4.1-3.7,6.3-1,1.1-1.6,2.5-1.6,3.9h0v2c-.8-1.9-2.1-3.1-2.8-3.6-.4-.4-1.6-1.3-3-2.3-3-2-6.4-1.5-8.8-.4l-4.1,1.8h-.2c-2.5,1.4-4.1,3.5-4.6,6.2-1.6,1.1-2.7,2.9-2.8,5v9h.7v5.8c0,.2-9.4,3.8-9.4,3.8v54.3c0,1.9.4,8.6,5,16.7,3.1,5.2,7.4,10.1,12.8,14.4,6.6,5.2,14.8,9.6,24.5,13.1l2.1.8,2.1-.8c9.7-3.5,18-8,24.6-13.1,5.4-4.3,9.8-9.1,12.8-14.4,4.7-8,5-14.8,5-16.6v-53.9l-6.5-2.3h0ZM107.5,111.6c0,1.7-.3,7.9-4.7,15.3-2.9,5-7,9.5-12.2,13.6-6.3,5-14.4,9.3-23.8,12.7l-1.2.4-1.2-.4c-9.5-3.4-17.5-7.7-23.8-12.7-5.2-4.1-9.3-8.7-12.2-13.6-4.4-7.5-4.7-13.6-4.7-15.3v-52.5l9.5-3.6v-10.2h-.7v-6.2c0-1.7,1-2.7,1.8-3.1l.9-.4v-.5h0c.2-2.2,1.4-4,3.3-5h0l4.1-1.9c1.6-.8,4.1-1.2,6.1.2,1.4.9,2.5,1.9,2.9,2.2.5.4,2.3,1.9,2.3,4.4v.3c.5.2,1,.6,1.3,1.2l4.4-1.6v-.2l-1-.6v-3.7c0-1.4.8-2.4,1.6-2.9v-.5c0-.3,0-3.2,2.5-4.8l.3-.2,5-2.2c.3,0,3.2-1.3,5.8.3,1.1.7,2.4,1.6,3,2.1.2,0,.6.5,1,1,.6.8,1.4,2.1,1.4,3.6v1s0,.1.2.2c.6.6.9,1.5,1,2.3v5.3l5.1,2.1c0-.3.2-1,.5-1.7.4-.7.9-1.5,1.9-2.1h.2l3.2-1.6c.3,0,.6-.2.8-.3,1-.2,2.4-.4,3.7.2.2,0,.4.2,2.2,1.3,0,0,.4.3.6.5.6.5,1,.9,1.2,1.3.3.5.8,1.4.8,2.5v.6c.4.3,1.4,1.3,1.4,2.8v4.1h-.9v12.1l6.5,2.3v52h-.2Z"></path><path class="st0" d="M101.8,115.4c-.5,2.2-1.5,5.2-3.5,8.6-2.6,4.3-6.3,8.3-11,12-5.8,4.5-13.2,8.4-21.9,11.5-3.6-1.3-6.9-2.7-10.1-4.3,3.5-1,7.7-2.4,12.3-4.2,12.5-4.4,27.5-11.9,34.2-23.7h0Z"></path></g><path class="st0" d="M70.3,28.2l-7,2.3v1c.9.7,1.2,2,1.2,2.4v12.3l-23.3,8.8v-15.6l3.9-1.2,2.8.7v-1.4l-2.8-.7-8.6,2.7h-.5v2.6h.4s.7,0,.7,1.3v14.3c0,0-3.4,4.7-3.4,4.7v19.2s0,3.7-2.7,6.6h-.1v23.5c.2.3.3.5.5.8h0c.9,1.7,2.1,3.4,3.6,5v-29.5c1.1-.8,1.8-2.7,2.2-4.2.4-1.7.5-3.1.5-3.9v-18l3.4-4.9h0v41l4.6-1.1v-3.8l4.2-1v-4.5l4.8-1.2v4.5l4.2-1v3.8l4.6-1.1v-12.1c1.5-.3,1.5-4.1,1.5-4.1v-5h0v-20l2.2-4.4v-16.4l3-1,6.1,2.8v-.4h0v-1.1l-6.1-2.7h.1ZM58.1,57.6c0-.2.4-.4.6-.5.4,0,.8,0,1.1.2.2,0,.3.4.3.8s0,.5-.2.7c0,.2-.4.4-.6.5h-.4c-.3,0-.5,0-.7-.3-.2,0-.3-.4-.3-.8s0-.5.2-.7h0ZM51.9,56.2c0-.2.4-.4.6-.5.4,0,.8,0,1.1.2.2,0,.3.4.3.8s0,.5-.2.7c0,.2-.4.4-.6.5h-.4c-.3,0-.5,0-.7-.3-.2,0-.3-.4-.3-.8s0-.5.2-.7h0ZM46.3,61.8c0-.2.4-.4.6-.5.4,0,.8,0,1.1.2.2,0,.3.4.3.8s0,.5-.2.7c0,.2-.4.4-.6.5h-.4c-.3,0-.5,0-.7-.3-.2,0-.3-.4-.3-.8s0-.5.2-.7h0ZM45.2,71.7c0,.2-.4.4-.6.5h-.4c-.3,0-.5,0-.7-.3-.2,0-.3-.4-.3-.8s0-.5.2-.7c0-.2.4-.4.6-.5.4,0,.8,0,1.1.2.2,0,.3.4.3.8s0,.5-.2.7h0ZM47.7,78.4c0,.2-.4.4-.6.5h-.4c-.3,0-.5,0-.7-.3-.2,0-.3-.4-.3-.8s0-.5.2-.7c0-.2.4-.4.6-.5.4,0,.8,0,1.1.2h0c.2,0,.3.4.3.8s0,.5-.2.7h0ZM53.8,79.7c0,.2-.4.4-.6.5h-.4c-.3,0-.5,0-.7-.3-.2,0-.3-.4-.3-.8s0-.5.2-.7c0-.2.4-.4.6-.5.4,0,.8,0,1.1.2.2,0,.3.4.3.8s0,.5-.2.7h0ZM53.4,68.7c-.2.3-.6.5-.9.5h0c-.2,0-.4,0-.6-.2h-6.8l.2-1h.6l5.9-1c.2-.3.6-.5.9-.5h.2l7.8-5.7.6.8-7.7,7.2h-.2ZM59.8,73.9c0,.2-.4.4-.6.5h-.4c-.3,0-.5,0-.7-.3-.2,0-.3-.4-.3-.8s0-.5.2-.7c0-.2.4-.4.6-.5.4,0,.8,0,1.1.2h0c.2,0,.3.4.3.8s0,.5-.2.7h0ZM62.3,65.4c0,.2-.4.4-.6.5h-.4c-.3,0-.5,0-.7-.3-.2,0-.3-.4-.3-.8s0-.5.2-.7c0-.2.4-.4.6-.5.4,0,.8,0,1.1.2.2,0,.3.4.3.8s0,.5-.2.7h0Z"></path><path class="st0" d="M65,25.2l4.5-1.9c-1.6,1.2-1.5,3.1-1.4,3.7l-3.8,1.3v-1.1c0-1.5.6-1.9.6-1.9h.1ZM39.9,33.4l4.5-1.9c-2,1.5-1.3,3.8-1.3,3.8h0l-3.8,1.2v-1.3c0-1.5.6-1.8.6-1.8Z"></path><g><path class="st0" d="M89.2,58.1c-.9-.5-1.9-.5-2.6,0-.4.2-.6.5-.5.9,0,.2.2.6.8.7,0,0,1.9.4,2,1.9v13.4l2.6,1v-14.4c0-1.3-.9-2.8-2.3-3.4h0Z"></path><path class="st0" d="M81.2,55.4c-.9-.5-1.9-.5-2.6,0h0c-.3.2-.5.6-.4.9,0,.2.2.5.7.6,0,0,1.9.4,2,1.9v13.4l2.6,1v-14.4c0-1.3-.9-2.8-2.3-3.4Z"></path></g><g><polygon class="st0" points="44.8 110.4 47.8 109.9 47.8 99.3 44.8 99.9 44.8 110.4"></polygon><polygon class="st0" points="57.1 97.5 57.1 108.3 60 107.8 60 96.8 57.1 97.5"></polygon><polygon class="st0" points="51 109.4 53.9 108.9 53.9 94.2 51 94.8 51 109.4"></polygon></g><polygon class="st0" points="43.9 51.7 43.9 44.7 46.8 43.6 46.8 47.4 43.9 51.7"></polygon><polygon class="st0" points="48.6 46.6 48.6 42.9 51.5 41.9 51.5 48.8 48.6 46.6"></polygon><polygon class="st0" points="54.3 47.7 54.3 40.8 57.2 39.7 57.2 43.4 54.3 47.7"></polygon><polygon class="st0" points="59.1 42.6 59.1 39 62 37.9 62 44.8 59.1 42.6"></polygon><g><polygon class="st0" points="79.7 114.4 79.7 117.5 81.2 117.5 81.2 128.4 84.4 128.4 84.4 114.4 79.7 114.4"></polygon><polygon class="st0" points="66.6 117.5 72.6 117.5 67.7 129.7 67.6 129.8 71.2 129.8 77.3 114.5 77.4 114.4 66.6 114.4 66.6 117.5"></polygon><path class="st0" d="M62.5,118.6c.2-.2.3-.4.4-.5.3-.5.5-1.1.5-1.7s-.2-1.3-.6-1.8c-.4-.5-.9-.9-1.5-1.2-1.2-.6-2.8-.6-4,0-.6.3-1.1.7-1.5,1.3-.4.6-.5,1.2-.5,1.9s.2,1.2.4,1.7c0,.2.2.4.4.5-.4.3-.8.7-1.1,1.1-.6.7-.9,1.6-.9,2.7s.2,1.7.7,2.4c.5.7,1.1,1.3,1.9,1.8.8.4,1.7.7,2.6.7s1.8-.2,2.6-.7c.8-.4,1.4-1,1.9-1.8.5-.7.7-1.6.7-2.4s-.3-1.9-.9-2.7c-.3-.4-.7-.8-1.2-1.1v-.2h0ZM57.4,122.3c0-.4,0-.7.3-1,.2-.3.4-.6.7-.7.3-.2.6-.3,1-.3s.7,0,1,.3c.3.2.6.4.7.7.2.3.3.6.3,1s0,.7-.3,1c-.2.3-.5.6-.8.8-.6.4-1.4.4-2,0-.3-.2-.5-.4-.7-.8-.2-.3-.3-.6-.3-1h0ZM60.1,117.2c-.4.4-.9.4-1.3,0-.2-.2-.3-.3-.3-.6s0-.5.3-.7c.2-.2.4-.3.7-.3s.5,0,.6.3c.2.2.3.4.3.7s0,.4-.3.6Z"></path><polygon class="st0" points="46.7 117.5 48.2 117.5 48.2 128.4 51.3 128.4 51.3 114.4 46.7 114.4 46.7 117.5"></polygon></g></g><g><path class="st0" d="M181.5,42.7h-.3c-3.7-4.1-10.4-5.4-15.9-5.4-13.9,0-24.5,9.1-24.5,23.4s11.4,25.2,25.5,25.3c4.1,0,8.4-.5,12.4-1.7v-12.8c0-4.1-.6-8.5-6.7-10.1v-.3h16.3v.3c-.4,1.1-.4,2.5-.4,3.8v20.5c0,1.3-.1,2.8.4,4-7.1,1.3-14.1,2.7-21.3,2.6-22.8,0-36.3-12.5-36.3-30.5s15.3-31.1,36.9-31.1,9.4.5,14,1.5v10.5h-.1Z"></path><path class="st0" d="M215.5,84.4l11.6,1.1c6,.5,12.3-1.4,16.9-5.4h.3l-4.1,11.9h-38.1v-.3c4.7-1.6,4.1-8.4,4.1-12.5v-34.3c0-4.2.6-10.9-4-12.6v-.3h29.2c1.6,0,3.1.2,4.3-.4h.3v10.7h-.3c-2.8-3.3-6.6-3.7-10.8-3.7s-6.4,0-9.3.6v17h10.8c1.5,0,2.9,0,4-.5h.3v9.7h-.3c-1.5-2.6-5.3-2.6-8.1-2.6h-6.7v21.6s-.1,0-.1,0Z"></path><path class="st0" d="M264.6,80.3c0,5.1-.1,8.8,4.7,11.6v.3h-16.2v-.3c4.8-2.8,4.8-6.5,4.9-11.6v-36.4c0-5.1,0-8.8-4.7-11.5v-.3h13.3c.4,1.2.7,1.7,1.4,2.4l1.3,1.8,33.3,42.2v-34.6c0-5.1.1-8.8-4.7-11.5v-.3h16.1v.3c-4.7,2.7-4.8,6.4-4.8,11.5v51.2c-6.5-2.2-9.4-5.2-13.4-10.4l-31.2-39.7v35.3h0Z"></path><path class="st0" d="M415.8,43.2c-3.6-3.7-9.2-5.8-14.3-5.8s-11.8,2-11.8,8.3c0,12.5,31.4,12.4,31.4,29.2s-10.2,18.9-24.5,18.9-11.1-.8-16.3-2.8l-2.6-11.4c5.4,4.7,12.9,7.6,20,7.6s13.1-3.1,13.1-9.5c0-14.2-31.4-11.7-31.4-31.1s11.8-15.9,22.9-15.8c4.6,0,9.2.7,13.6,2v10.3h-.1Z"></path><path class="st0" d="M447.3,84.7l11.6,1.1c6,.5,12.3-1.4,16.9-5.4h.3l-4.1,11.9h-38.1v-.3c4.6-1.6,4.1-8.4,4.1-12.5v-34.3c0-4.2.6-10.9-4-12.6v-.3h29.2c1.5,0,3.1.2,4.3-.4h.3v10.7h-.3c-2.8-3.3-6.6-3.7-10.8-3.7s-6.4,0-9.3.6v17h10.8c1.5,0,2.9,0,4-.6h.3v9.7h-.3c-1.5-2.7-5.3-2.6-8.1-2.6h-6.7v21.6h0Z"></path><path class="st0" d="M549,62.3c0,18.3-15.2,31.6-33.1,31.5-17.8,0-32.7-12.8-32.7-31.2s14.9-31.3,33.7-30.8c18.9,0,32.1,14.3,32.1,30.5M493.4,61.8c0,12.6,8.9,25.5,23,25.5s22.4-9.9,22.4-23.3-8.3-25.8-22.5-25.8-22.8,10-22.8,23.6"></path><path class="st0" d="M339,84.6l11.6,1.1c6,.6,12.3-1.4,16.9-5.4h.3l-4.1,11.9h-38v-.3c4.7-1.6,4.1-8.4,4.1-12.5v-34.3c0-4.2.6-10.9-4-12.6v-.3h29.2c1.6,0,3.1.2,4.3-.4h.3v10.7h-.3c-2.8-3.3-6.6-3.7-10.8-3.7s-6.4,0-9.3.6v17h10.8c1.5,0,2.9,0,4-.5h.3v9.7h-.3c-1.5-2.6-5.3-2.6-8.1-2.6h-6.7v21.6h-.2,0Z"></path><path class="st0" d="M130.7,109.6c132.2-1.4,286.1-1.4,418.3,0-132.2,1.4-286.1,1.4-418.3,0"></path><path class="st0" d="M430.5,140.6c0,5.2,3.5,10.5,9,10.5s8.7-4.1,8.7-9.6-3.3-10.6-8.8-10.6-8.9,4.2-8.9,9.8M452.2,140.8c0,7.6-5.9,13.1-12.9,13.1s-12.8-5.3-12.8-12.9,5.8-12.9,13.2-12.8c7.4,0,12.6,5.9,12.6,12.6"></path><path class="st0" d="M461.7,153.2h-7c0-.2.4-1,.6-1.8.3-1.1.2-2.4.2-3.4v-15.6h0c0-.8-.2-2.7-1.4-3.7h5.2v21.4h0v.4h7.1s.3,0,1.2-.1c.6-.1,1.6-.4,2.2-.9h0v3.7h-8.1Z"></path><path class="st0" d="M481.3,153.2h-7c0-.2.4-1,.6-1.8.3-1.1.2-2.4.2-3.4v-15.6h0c0-.8-.2-2.7-1.4-3.7h5.2v21.4h0v.4h7.1s.3,0,1.2-.1c.6-.1,1.6-.4,2.2-.9h0v3.7h-8.1Z"></path><path class="st0" d="M409.1,131.7c-2.4,2.3-3.7,5.5-3.7,9.3,0,7.9,5.5,12.9,14.2,12.9s3.9-.3,5.4-1v-2.5c-.6.2-1.2.3-1.8.5-.3.1-.7.2-1,.3l-1,.2h0c-.7,0-1.4.1-2.1.1-5.8,0-10.1-4.7-10.1-11s3.9-9.8,9.4-9.8,1.1,0,1.7,0h.2c.6,0,1.7.3,3.4.9v-2.9c-2-.4-3.7-.6-5.2-.6-3.8,0-7,1.2-9.4,3.5"></path><path class="st0" d="M418.4,128.4c-3.7,0-7,1.2-9.3,3.5-2.4,2.3-3.6,5.5-3.6,9.2,0,7.9,5.4,12.7,14.1,12.7s3.8-.3,5.3-1v-2.3c-.5.2-1.1.3-1.7.5-.3.1-.7.2-1.1.3l-1.2.3h-1.9c-5.8,0-10.3-4.8-10.3-11.2s3.9-9.9,9.5-9.9,1.1,0,1.7,0h.2c.5,0,1.6.3,3.2.9v-2.6c-1.9-.4-3.6-.6-5.1-.6M419.6,154c-8.9,0-14.4-5-14.4-13s1.3-7,3.7-9.4c2.4-2.3,5.7-3.5,9.5-3.5s3.3.2,5.2.6h.1v3.2h-.2c-1.7-.7-2.8-.9-3.3-1h-1.8c-5.4,0-9.2,4-9.2,9.7s4.3,10.9,10,10.9,1.4,0,2.1-.2h.2l.7-.2c.4,0,.7-.2,1-.3.6-.2,1.3-.3,1.8-.5h.2v2.7h0c-1.5.7-3.4,1.1-5.4,1.1"></path><path class="st0" d="M525.2,131.3c.8.2,2,.6,3.3,1.2v-3.6c-1.8-.4-3.6-.6-5.5-.6-8.4,0-14.4,5-14.4,12.9s5.3,12.6,14.2,12.6,5.4-.5,8.1-1.1v-11.9h-4.9c1.5,1.4,1.4,4.1,1.4,4.1h0v5.5c-1.6.5-3.2.7-4.8.7-5.5,0-9.9-4.5-9.9-10.5s4.1-9.8,9.6-9.8.7,0,1,0c0,0,.5,0,2,.3"></path><path class="st0" d="M501.4,141.3c.3,0,.8.2,1.2.4v-3.1h-6.1v-6.9h0v-.5h5.3s.7,0,1.5.2c.5,0,1,.3,1.5.6v-3.2h-13.2c.4.5.7,1.2.9,1.8.3,1.1.3,2.4.3,3.4v16.7h0v.3h0v.2c-.2.8-.6,1.6-.7,1.8h14.7v-3.6c-.4.3-1,.5-1.5.7-1.3.3-3.2.3-3.2.3h-5.3v-.5h0v-8.8h4.9"></path><path class="st0" d="M544.3,141.3c.3,0,.8.2,1.2.4v-3.1h-6.1v-6.9h0v-.5h5.3s.7,0,1.5.2c.5,0,1,.3,1.5.6v-3.2h-13.2c.4.5.7,1.2.9,1.8.3,1.1.3,2.4.3,3.4v16.7h0v.3h0v.2c-.2.8-.6,1.6-.7,1.8h14.7v-3.6c-.4.3-1,.5-1.5.7-1.3.3-3.2.3-3.2.3h-5.3v-.5h0v-8.8h4.9"></path><path class="st0" d="M276.5,140.7c0,5.2,3.5,10.5,9,10.5s8.7-4.1,8.7-9.6-3.3-10.6-8.8-10.6-8.9,4.2-8.9,9.8M298.2,140.8c0,7.6-5.9,13.1-12.9,13.1s-12.8-5.3-12.8-12.9,5.8-12.9,13.2-12.8c7.4,0,12.6,5.9,12.6,12.6"></path><path class="st0" d="M328.5,140.7c0,5.2,3.5,10.5,9,10.5s8.7-4.1,8.7-9.6-3.3-10.6-8.8-10.6-8.9,4.2-8.9,9.8M350.2,140.8c0,7.6-5.9,13.1-12.9,13.1s-12.8-5.3-12.8-12.9,5.8-12.9,13.2-12.8c7.4,0,12.6,5.9,12.6,12.6"></path><path class="st0" d="M323.2,128.9h-4.6v1.5h0v16.7l-8.2-10.3h0l-1.3-1.6-3.6-4.6-.2-.2-1.2-1.5h-4.7c.6.5.9,1.2,1.1,1.9.3.8.3,1.7.3,2.9v16.8c0,1.1-.7,2.5-1,2.9h4.3v-1.3h0v-17.1l12.1,15.4c1.1,1.4,1.9,2.4,3.1,3.1h2.3v-19.7c0-1.2,0-2.1.3-3,.2-.7.6-1.3,1.2-1.8"></path><path class="st0" d="M386.1,131.4c.9.3,1.9.7,3.1,1.4v-3.7c-1.8-.6-3.7-.8-5.5-.8-4.5,0-9.3,1.8-9.3,6.5,0,7.9,12.8,6.8,12.8,12.6s-3.2,3.9-5.3,3.9-3.7-.5-5.4-1.3c-.5-.2-1-.5-1.6-.8v3.6c2.1.8,4.4,1.1,6.6,1.1,5.8,0,9.9-3.7,9.9-7.7,0-6.9-12.8-6.8-12.8-11.9s2.7-3.4,4.8-3.4,0,0,.1,0c0,0,1.2,0,2.6.5"></path><path class="st0" d="M373.7,152.9h0c0,.2,0,.3-.3.3h-2.8c-.8,0-1.4,0-2-.2-.9-.3-2-1.3-3.1-2.4l-2.7-3.2h0c-.3-.4-1.6-2.1-2.2-2.9l-2.7-4c3.1-.4,6.6-1.8,6.6-5.3s-1.2-3.2-2.8-3.8c-2.2-.9-4.8-.5-4.8-.5v.5h0v21.8h-5.5c1.2-.8,1.5-2.3,1.7-3.3v-17.1h0c0-.7-.2-3-1.7-4h9.1c5.1,0,7.9,2.6,7.9,6s-3,5.8-6.1,6.5l5.5,6.7c1.4,1.7,3.5,3.4,5.4,4.7,0,0,.2.1.2.2"></path><path class="st0" d="M266.8,128.6v10h-13v-10h-4.6l.2.2c.3.3.6.7.8,1.2.5,1,.4,2.3.4,3.4v15.3c0,.9,0,1.9-.2,2.8-.2.9-.6,1.8-.6,1.9v.2h4.1v-12.1h13v12.1h4.1v-.2c-.2-.2-.5-1-.7-1.9s-.2-2-.2-2.8v-15.2c0-1.1,0-2.4.4-3.3.2-.5.5-1,.8-1.3l.2-.2h-4.7,0Z"></path><g><polygon class="st0" points="142.5 126.1 140.8 126.1 140.9 136.1 140.7 135.9 130.7 125.7 130.7 139.6 132.4 139.6 132.4 129.7 142.5 140 142.5 126.1"></polygon><path class="st0" d="M153.8,129v1.4h-5.5v3.2h4.9v1.4h-4.9v3.3h5.7v1.4h-7.1v-10.7h6.9Z"></path><path class="st0" d="M166.5,140.1l-2.5-6.4-2.7,6.4-4.2-11.1h1.7l2.8,7.8,1.8-4.8-1.1-2.9h1.4l3,7.6,2.6-7.6h1.5l-4.2,11.1h-.1Z"></path><polygon class="st0" points="190.9 126.1 187.2 133.2 187.1 133 183.3 126.1 181.3 126.1 186.3 135.1 186.3 139.6 187.9 139.6 187.9 135.1 188 135.1 193 126.1 190.9 126.1"></polygon><path class="st0" d="M194.5,131.6c.5-.8,1.2-1.5,2-2s1.7-.7,2.7-.7,1.9.2,2.7.7,1.5,1.2,2,2,.7,1.7.7,2.7-.2,1.9-.7,2.7-1.2,1.5-2,2-1.7.7-2.7.7-1.9-.2-2.7-.7-1.5-1.1-2-2c-.5-.8-.7-1.7-.7-2.7s.2-1.9.7-2.7ZM195.8,136.4c.4.6.8,1.1,1.5,1.5.6.4,1.3.5,2,.5s1.4-.2,2-.5,1.1-.9,1.4-1.5c.3-.6.5-1.3.5-2s-.2-1.4-.5-2-.8-1.1-1.4-1.5c-.6-.4-1.3-.5-2-.5s-1.4.2-2,.6-1.1.9-1.4,1.5c-.3.6-.5,1.3-.5,2s.2,1.4.5,2h-.1Z"></path><path class="st0" d="M214.4,139.6l-2.5-3.9h-2v3.9h-1.4v-10.7h2.8c.7,0,1.4,0,1.9.4.6.3,1,.6,1.3,1.1s.5,1.1.5,1.8-.1,1.3-.4,1.8c-.3.5-.7,1-1.3,1.3l2.7,4.3h-1.7,0ZM213.2,133.7c.3-.4.5-.9.5-1.4s0-.6-.2-.9c-.1-.3-.4-.6-.7-.8s-.7-.3-1.2-.3h-1.7v4h1.5c.8,0,1.3-.2,1.7-.6h0Z"></path><path class="st0" d="M221.2,133.8l.2-.3,4.4-4.5h1.8l-4.4,4.6,4.7,6.1h-1.8l-3.9-5.2-.9.9v4.3h-1.4v-10.7h1.5v4.8h-.2Z"></path><path class="st0" d="M230.3,130c.5,0,.9-.3,1.3-.6.3-.3.5-.7.5-1.1h-.7c-.2,0-.4,0-.6-.3-.2-.2-.3-.4-.3-.8s.1-.6.3-.8c.2-.2.5-.3.8-.3s.7.2,1,.5c.2.3.4.7.4,1.2s0,.8-.2,1.1-.4.6-.6.8-.5.4-.8.5-.6.2-.8.2v-.5h-.3,0Z"></path><path class="st0" d="M240.1,130.4c-.4,0-.8-.2-1.2-.2-.6,0-1,0-1.4.4s-.5.6-.5,1.1.2.8.6,1.1c.4.3,1,.6,1.7.8.6.2,1,.4,1.4.6s.7.6.9,1c.3.4.4.9.4,1.6s-.1,1.1-.4,1.5c-.3.5-.7.8-1.2,1.1s-1.1.4-1.8.4-1.3,0-1.9-.3c-.6-.2-1.1-.5-1.6-.8l.6-1.1c.4.3.8.5,1.3.7s1,.3,1.4.3,1.1,0,1.5-.4.6-.7.6-1.3-.2-.9-.5-1.2c-.4-.3-.9-.6-1.5-.8s-1.1-.4-1.5-.7c-.4-.2-.7-.5-1-.9s-.4-.9-.4-1.4c0-.8.3-1.5.9-2,.6-.5,1.3-.8,2.3-.8s2.2.3,3.2.9l-.5,1.1c-.4-.2-.8-.4-1.2-.5l-.2-.2h0Z"></path><path class="st0" d="M190,143.9c.7.6,1,1.4,1,2.4s-.1,1.2-.4,1.7c-.2.5-.6.9-1.2,1.3-.5.3-1.2.5-2,.5h-1.6v3.9h-1.4v-10.7h2.9c1.2,0,2.1.3,2.7.9h0ZM188.7,148c.3-.2.5-.5.7-.8.1-.3.2-.6.2-.9,0-.5-.2-1-.5-1.4s-.9-.6-1.6-.6h-1.7v4h1.6c.5,0,.9-.1,1.2-.3h.1Z"></path><path class="st0" d="M196.3,151.1c.2.4.5.7.9.9s.8.3,1.3.3.9-.1,1.3-.3.7-.5.9-.9.3-.8.3-1.3v-6.9h1.4v6.9c0,.8-.2,1.4-.5,2s-.8,1-1.4,1.4c-.6.3-1.3.5-2,.5s-1.4-.2-2-.5-1.1-.8-1.4-1.4c-.3-.6-.5-1.3-.5-2v-6.9h1.4v6.9c0,.5.1.9.3,1.3Z"></path><path class="st0" d="M213.1,149.1c.4.4.5.9.5,1.5s-.2,1.2-.5,1.7c-.3.4-.8.8-1.3,1s-1.1.3-1.8.3h-3.2v-10.7h2.8c1.1,0,1.9.2,2.5.7.6.4.9,1.1.9,2s-.1,1-.4,1.5-.6.7-1.1,1c.6.2,1.1.6,1.4,1h.2ZM208.4,147.6h1.6c.5,0,1-.2,1.2-.5.3-.3.4-.7.4-1.2s-.2-.9-.5-1.2-.8-.4-1.4-.4h-1.4v3.3h0ZM211.6,151.9c.4-.3.6-.7.6-1.2s-.2-1-.7-1.2-1-.4-1.6-.4h-1.6v3.3h1.7c.6,0,1.1-.1,1.5-.4h.1Z"></path><path class="st0" d="M219,143v9.3h5.4v1.4h-6.9v-10.7h1.5Z"></path><path class="st0" d="M229.6,143v10.7h-1.4v-10.7h1.4Z"></path><path class="st0" d="M240.7,153.5c-.5.2-1.1.3-1.7.3-1.1,0-2.1-.2-2.9-.7-.8-.5-1.5-1.1-1.9-1.9s-.7-1.7-.7-2.7.2-2,.7-2.8,1.1-1.5,1.9-2c.8-.5,1.7-.7,2.7-.7s1.2,0,1.7.2,1,.4,1.4.6l-.6,1.3c-.8-.5-1.6-.8-2.5-.8s-1.3.2-1.9.5c-.6.4-1.1.9-1.4,1.5-.3.6-.5,1.3-.5,2.1s.2,1.5.5,2.1.8,1.1,1.4,1.5c.6.3,1.3.5,2.1.5s1.8-.3,2.5-.8l.6,1.3c-.3.2-.8.4-1.3.6h-.1Z"></path></g></g></svg>